# AST/ASF file generated using VICON BodyLanguage
# -----------------------------------------------
:version 1.10
:name VICON
:units
  mass 1.0
  length 0.45
  angle deg
:documentation
   .ast/.asf automatically generated from VICON data using
   VICON BodyBuilder and BodyLanguage model FoxedUp or BRILLIANT.MOD
:root
   order TX TY TZ RX RY RZ
   axis XYZ
   position 0 0 0  
   orientation 0 0 0 
:bonedata
  begin
     id 1 
     name lhipjoint
     direction 0.567149 -0.783011 0.255413 
     length 2.28399 
     axis 0 0 0  XYZ
  end
  begin
     id 2 
     name lfemur
     direction 0.34202 -0.939693 0  
     length 7.34031  
     axis 0 0 20  XYZ
    dof rx ry rz
    limits (-160.0 20.0)
           (-70.0 70.0)
           (-60.0 70.0)
  end
  begin
     id 3 
     name ltibia
     direction 0.34202 -0.939693 0   
     length 6.9833   
     axis 0 0 20   XYZ
    dof rx
    limits (-10.0 170.0)
  end
  begin
     id 4 
     name lfoot
     direction 0.136498 -0.375025 0.91691   
     length 2.33665   
     axis -90 7.62852e-016 20   XYZ
    dof rx rz
    limits (-45.0 90.0)
           (-70.0 20.0)
  end
  begin
     id 5 
     name ltoes
     direction 1.5367e-011 -4.21617e-011 1   
     length 1.15039   
     axis -90 7.62852e-016 20   XYZ
    dof rx
    limits (-90.0 20.0)
  end
  begin
     id 6 
     name rhipjoint
     direction -0.602854 -0.758518 0.247423   
     length 2.35775  
     axis 0 0 0  XYZ 
  end
  begin
     id 7 
     name rfemur
     direction -0.34202 -0.939693 0   
     length 7.43932   
     axis 0 0 -20   XYZ
    dof rx ry rz
    limits (-160.0 20.0)
           (-70.0 70.0)
           (-70.0 60.0)
  end
  begin
     id 8 
     name rtibia
     direction -0.34202 -0.939693 0   
     length 7.11893   
     axis 0 0 -20   XYZ
    dof rx
    limits (-10.0 170.0)
 end
 begin
     id 9 
     name rfoot
     direction -0.131771 -0.362037 0.922803   
     length 2.53019  
     axis -90 -7.62852e-016 -20   XYZ
    dof rx rz
    limits (-45.0 90.0)
           (-20.0 70.0)
  end
  begin
     id 10 
     name rtoes
     direction -1.53733e-011 -4.21932e-011 1   
     length 1.24596   
     axis -90 -7.62852e-016 -20   XYZ
    dof rx
    limits (-90.0 20.0)
  end
  begin
     id 11 
     name lowerback
     direction 0.0235427 0.999023 -0.0374125   
     length 2.21768   
     axis 0 0 0   XYZ
    dof rx ry rz
    limits (-20.0 45.0)
           (-30.0 30.0)
           (-30.0 30.0)
  end
  begin
     id 12 
     name upperback
     direction 0.0302156 0.996818 -0.073759   
     length 2.20352   
     axis 0 0 0   XYZ
    dof rx ry rz
    limits (-20.0 45.0)
           (-30.0 30.0)
           (-30.0 30.0)
  end
  begin
     id 13 
     name thorax
     direction 0.0187169 0.998235 -0.0563532   
     length 2.22103   
     axis 0 0 0   XYZ
    dof rx ry rz
    limits (-20.0 45.0)
           (-30.0 30.0)
           (-30.0 30.0)
  end
  begin
     id 14 
     name lowerneck
     direction -0.119528 0.987423 0.103481   
     length 1.72948   
     axis 0 0 0   XYZ
    dof rx ry rz
    limits (-20.0 45.0)
           (-30.0 30.0)
           (-30.0 30.0)
  end
  begin
     id 15 
     name upperneck
     direction 0.248049 0.963095 -0.104496   
     length 1.74979   
     axis 0 0 0   XYZ
    dof rx ry rz
    limits (-20.0 45.0)
           (-30.0 30.0)
           (-30.0 30.0)
  end
  begin
     id 16
     name head
     direction 0.0903589 0.994284 -0.056876  
     length 1.78268  
     axis 0 0 0   XYZ
    dof rx ry rz
    limits (-20.0 45.0)
           (-30.0 30.0)
           (-30.0 30.0)
  end
  begin
     id 17 
     name lclavicle
     direction 0.946008 0.242039 -0.215608  
     length 3.80783  
     axis 0 0 0   XYZ
    dof ry rz
    limits (-20.0 10.0)
           (0.0 20.0)
  end
  begin
     id 18 
     name lhumerus
     direction 1 -4.48991e-011 -2.25695e-027   
     length 4.83125   
     axis 180 -30 -90   XYZ
    dof rx ry rz
    limits (-60.0 90.0)
           (-90.0 90.0)
           (-90.0 90.0)
  end
  begin
     id 19
     name lradius
     direction 0.999991 0.00366712 -0.00211721   
     length 3.00391   
     axis 180 -30 -90   XYZ
    dof rx
    limits (-10.0 170.0)
  end
  begin
     id 20
     name lwrist
     direction 0.999991 0.00393016 -0.00141978   
     length 1.50195   
     axis -1.00488e-014 90 90   XYZ
    dof ry
    limits (-180.0 0.0)
 end
  begin
     id 21 
     name lhand
     direction 1 -4.49123e-011 2.72098e-026   
     length 1.2717   
     axis -1.73687e-014 90 90   XYZ
    dof rx rz
    limits (-90.0 90.0)
           (-45.0 45.0)
  end
  begin
     id 22 
     name lfingers
     direction 1 -4.48678e-011 5.4479e-026   
     length 1.02528   
     axis -3.47372e-014 90 90   XYZ
    dof rx
    limits (0.0 90.0)
  end
  begin
     id 23
     name lthumb
     direction 0.707107 -6.34851e-011 0.707107   
     length 1.4721   
     axis -90 45 -1.62303e-014   XYZ
    dof rx rz
    limits (-45.0 45.0)
           (-45.0 45.0)
  end
  begin
     id 24 
     name rclavicle
     direction -0.981723 0.189447 -0.0181673   
     length 3.74989  
     axis 0 0 0   XYZ 
    dof ry rz
    limits (-10.0 20.0)
           (-20.0 0.0)
  end
  begin
     id 25 
     name rhumerus
     direction -1 -4.48985e-011 2.38206e-027  
     length 4.61118   
     axis 180 30 90   XYZ
    dof rx ry rz
    limits (-90.0 60.0)
           (-90.0 90.0)
           (-90.0 90.0)
  end
  begin
     id 26 
     name rradius
     direction -1 -4.48977e-011 7.41019e-027   
     length 2.91491   
     axis 180 30 90   XYZ
    dof rx
    limits (-10.0 170.0)
  end
  begin
     id 27 
     name rwrist
     direction -1 -4.48549e-011 1.3624e-026   
     length 1.45745   
     axis -1.00488e-014 -90 -90   XYZ
    dof ry
    limits (-180.0 0.0)
  end
  begin
     id 28
     name rhand
     direction -1 -4.49107e-011 2.72109e-026   
     length 1.30769   
     axis -1.73687e-014 -90 -90   XYZ
    dof rx rz
    limits (-90.0 90.0)
           (-45.0 45.0)
  end
  begin
     id 29
     name rfingers
     direction -1 -4.48919e-011 5.44468e-026   
     length 1.05429   
     axis -3.47372e-014 -90 -90   XYZ
    dof rx
    limits (0.0 90.0)
  end
  begin
     id 30
     name rthumb
     direction -0.707107 -6.35315e-011 0.707107   
     length 1.51376   
     axis -90 -45 1.62303e-014   XYZ
    dof rx rz
    limits (-45.0 45.0)
           (-45.0 45.0)
  end
:hierarchy
  begin
    root lhipjoint rhipjoint lowerback
    lhipjoint lfemur
    lfemur ltibia
    ltibia lfoot
    lfoot ltoes
    rhipjoint rfemur
    rfemur rtibia
    rtibia rfoot
    rfoot rtoes
    lowerback upperback
    upperback thorax
    thorax lowerneck lclavicle rclavicle
    lowerneck upperneck
    upperneck head
    lclavicle lhumerus
    lhumerus lradius
    lradius lwrist
    lwrist lhand lthumb
    lhand lfingers
    rclavicle rhumerus
    rhumerus rradius
    rradius rwrist
    rwrist rhand rthumb
    rhand rfingers
  end

#!OML:ASF X:\für Bonn\!DataBase\2005_08_11_Bastian_Final\c3d\Bastian.ASF
:FULLY-SPECIFIED
:DEGREES
1
root 1.64366 14.9971 -0.436714 542.753 -185.437 -180.148
lowerback 14.6973 -2.50959 1.5699
upperback 3.83922 -3.08401 -0.427288
thorax -4.27103 -1.52542 -0.776099
lowerneck -10.7996 -3.01869 -1.54678
upperneck -19.5064 -2.66703 10.0701
head -3.90845 -1.63076 3.40297
rclavicle 1.66979e-014 8.15017e-015
rhumerus -34.8611 7.01514 -92.5632
rradius 40.4385
rwrist -1.78421
rhand -26.3187 17.7484
rfingers 7.12502
rthumb 0.237932 -12.2312
lclavicle 1.66979e-014 8.15017e-015
lhumerus -23.1393 10.3854 78.8102
lradius 41.3549
lwrist -152.036
lhand -26.7899 9.79909
lfingers 7.12502
lthumb -0.217144 39.7787
rfemur -35.4718 -6.1184 20.088
rtibia 77.6144
rfoot -34.0295 -2.33808
rtoes -1.88278
lfemur -30.0556 3.73274 -17.2407
ltibia 76.4954
lfoot -32.7938 -16.6793
ltoes 1.87636
2
root 1.62207 15.0755 -0.177227 542.718 -185.465 -180.427
lowerback 13.8865 -2.54729 1.6571
upperback 3.6609 -3.13475 -0.352716
thorax -4.02135 -1.55291 -0.767131
lowerneck -10.2211 -2.98396 -1.72519
upperneck -19.549 -2.59215 10.1394
head -4.00938 -1.59947 3.46323
rclavicle -5.36719e-015 3.97569e-016
rhumerus -35.0436 8.08885 -92.8591
rradius 43.0632
rwrist -0.339104
rhand -26.8679 19.3172
rfingers 7.12502
rthumb -0.292508 -10.6623
lclavicle -5.36719e-015 3.97569e-016
lhumerus -22.6422 7.67965 79.4765
lradius 44.8652
lwrist -151.106
lhand -27.1393 9.809
lfingers 7.12502
lthumb -0.554599 39.788
rfemur -33.9246 -6.18757 20.4372
rtibia 76.721
rfoot -34.2337 -2.04531
rtoes -2.50283
lfemur -28.5428 3.84553 -16.5894
ltibia 75.6223
lfoot -32.498 -16.8253
ltoes -0.397841
3
root 1.60164 15.187 0.102191 542.535 -185.489 -180.41
lowerback 12.9902 -2.55448 1.43482
upperback 3.49803 -3.19318 -0.363981
thorax -3.6956 -1.58226 -0.67851
lowerneck -9.56905 -2.95876 -1.80118
upperneck -19.4362 -2.56734 10.068
head -4.07767 -1.59166 3.45898
rclavicle 1.92324e-014 -1.55052e-014
rhumerus -35.3382 9.17369 -93.1015
rradius 45.639
rwrist 1.19294
rhand -27.3415 21.0031
rfingers 7.12502
rthumb -0.749895 -8.97534
lclavicle 1.92324e-014 -1.55052e-014
lhumerus -22.5193 4.80734 79.9504
lradius 48.1318
lwrist -150.174
lhand -27.3158 10.5581
lfingers 7.12502
lthumb -0.725103 40.5367
rfemur -31.8331 -6.31315 20.394
rtibia 75.3929
rfoot -34.2045 -1.55332
rtoes -2.89716
lfemur -26.5096 3.85345 -16.2509
ltibia 74.1589
lfoot -31.6026 -17.1332
ltoes -1.5231
4
root 1.58049 15.3269 0.39639 542.244 -185.506 -180.216
lowerback 12.0014 -2.56207 0.982889
upperback 3.39577 -3.27785 -0.409254
thorax -3.24347 -1.6237 -0.500415
lowerneck -9.17788 -2.93968 -2.02091
upperneck -18.8895 -2.55617 10.1537
head -3.96411 -1.57003 3.51462
rclavicle -5.26779e-015 2.00773e-014
rhumerus -35.642 10.201 -93.2333
rradius 48.569
rwrist 3.23653
rhand -27.1857 21.4752
rfingers 7.12502
rthumb -0.599464 -8.50373
lclavicle -5.26779e-015 2.00773e-014
lhumerus -22.5218 2.09852 80.2463
lradius 51.4134
lwrist -149.526
lhand -27.2926 11.0906
lfingers 7.12502
lthumb -0.702709 41.0692
rfemur -29.307 -6.48076 20.1134
rtibia 73.6432
rfoot -33.9633 -0.989351
rtoes -4.13037
lfemur -24.1338 3.78787 -16.1124
ltibia 72.195
lfoot -30.1032 -17.37
ltoes -2.27552
5
root 1.55943 15.49 0.702123 541.97 -185.542 -179.962
lowerback 10.8452 -2.58788 0.459093
upperback 3.28547 -3.3854 -0.462101
thorax -2.70135 -1.67808 -0.297606
lowerneck -9.05106 -2.89544 -2.21847
upperneck -17.8935 -2.55643 10.1588
head -3.67463 -1.53481 3.52778
rclavicle 1.54058e-014 6.95746e-015
rhumerus -36.1214 11.2957 -93.2838
rradius 51.9614
rwrist 5.39132
rhand -26.4476 20.8893
rfingers 7.12502
rthumb 0.113393 -9.0904
lclavicle 1.54058e-014 6.95746e-015
lhumerus -22.666 -0.310598 80.3785
lradius 54.9303
lwrist -149.33
lhand -27.3987 11.6661
lfingers 7.12502
lthumb -0.805145 41.6444
rfemur -26.554 -6.59664 19.7267
rtibia 71.4819
rfoot -33.4691 -0.210413
rtoes -4.98255
lfemur -21.6328 3.68734 -16.0317
ltibia 69.8712
lfoot -28.0187 -17.5211
ltoes -2.54848
6
root 1.53854 15.6761 1.02215 541.678 -185.554 -179.8
lowerback 9.55541 -2.62512 0.0249299
upperback 3.10369 -3.48564 -0.489918
thorax -2.15932 -1.73097 -0.128593
lowerneck -8.8783 -2.83622 -2.4366
upperneck -16.5715 -2.56383 10.1186
head -3.29611 -1.49428 3.52496
rclavicle 1.22253e-014 -1.2921e-014
rhumerus -36.9519 12.5461 -93.3943
rradius 55.7125
rwrist 6.81587
rhand -26.2963 21.2766
rfingers 7.12502
rthumb 0.259568 -8.70303
lclavicle 1.22253e-014 -1.2921e-014
lhumerus -23.0245 -2.49171 80.3667
lradius 58.3921
lwrist -149.145
lhand -27.9736 12.6733
lfingers 7.12502
lthumb -1.36045 42.6487
rfemur -23.5445 -6.6328 19.4343
rtibia 68.8536
rfoot -32.5906 0.528697
rtoes -5.81355
lfemur -18.995 3.58311 -15.8461
ltibia 67.3045
lfoot -25.6878 -17.4368
ltoes -3.58182
7
root 1.5178 15.8859 1.35594 541.664 -185.604 -179.709
lowerback 7.82709 -2.67612 -0.259838
upperback 2.7309 -3.5809 -0.555757
thorax -1.57918 -1.7826 -0.103029
lowerneck -8.68468 -2.79809 -2.40638
upperneck -14.5013 -2.71797 9.64556
head -3.05381 -1.4908 3.66239
rclavicle -3.14577e-014 -8.94531e-015
rhumerus -38.2479 13.677 -93.6606
rradius 59.7216
rwrist 7.46983
rhand -26.0358 21.8914
rfingers 7.12502
rthumb 0.51113 -8.08769
lclavicle -3.14577e-014 -8.94531e-015
lhumerus -23.7118 -4.70299 80.2022
lradius 61.8659
lwrist -148.999
lhand -28.6659 14.1645
lfingers 7.12502
lthumb -2.02908 44.1346
rfemur -20.6608 -6.59414 19.2591
rtibia 65.7717
rfoot -31.2573 1.32431
rtoes -6.32842
lfemur -16.6485 3.4546 -15.6019
ltibia 64.5753
lfoot -23.0384 -17.0927
ltoes -5.93659
8
root 1.49696 16.1242 1.69972 542.02 -185.606 -179.615
lowerback 5.61267 -2.72625 -0.585836
upperback 2.22945 -3.66237 -0.590232
thorax -0.85028 -1.82831 -0.0498188
lowerneck -8.24202 -2.7807 -2.33367
upperneck -12.6833 -2.85111 9.29732
head -2.49551 -1.52364 3.47311
rclavicle 1.76421e-014 1.0138e-014
rhumerus -39.6904 14.9106 -93.993
rradius 63.6262
rwrist 7.58322
rhand -25.8608 22.7086
rfingers 7.12502
rthumb 0.680235 -7.27007
lclavicle 1.76421e-014 1.0138e-014
lhumerus -24.518 -6.5997 80.022
lradius 65.6147
lwrist -149.152
lhand -29.483 15.4261
lfingers 7.12502
lthumb -2.81822 45.3872
rfemur -18.0565 -6.3875 19.151
rtibia 62.2652
rfoot -29.3669 2.02784
rtoes -7.27361
lfemur -14.6868 3.34461 -15.4
ltibia 61.6385
lfoot -19.9559 -16.5059
ltoes -9.33208
9
root 1.47723 16.3955 2.05127 542.309 -185.645 -179.534
lowerback 3.39757 -2.81388 -0.89997
upperback 1.75028 -3.77564 -0.5995
thorax -0.0888787 -1.88975 0.0168711
lowerneck -7.61831 -2.78297 -2.20135
upperneck -10.9816 -3.00936 8.78965
head -2.0258 -1.57623 3.2333
rclavicle 1.37161e-014 -4.77083e-015
rhumerus -41.0977 16.2601 -94.328
rradius 67.1532
rwrist 7.55992
rhand -26.0141 23.7012
rfingers 7.12502
rthumb 0.532092 -6.27786
lclavicle 1.37161e-014 -4.77083e-015
lhumerus -25.4015 -8.22585 79.8344
lradius 69.7653
lwrist -149.356
lhand -30.0855 16.133
lfingers 7.12502
lthumb -3.40007 46.0856
rfemur -15.3092 -6.09419 19.0763
rtibia 58.4617
rfoot -26.9162 2.65612
rtoes -7.96835
lfemur -12.6204 3.18682 -15.2151
ltibia 58.4152
lfoot -16.4038 -15.7791
ltoes -14.8477
10
root 1.45537 16.7017 2.41021 542.275 -185.658 -179.411
lowerback 1.54119 -2.90981 -1.33195
upperback 1.34408 -3.88953 -0.61185
thorax 0.560358 -1.9517 0.155964
lowerneck -6.85251 -2.77512 -2.04354
upperneck -9.38712 -3.13916 8.23972
head -1.63204 -1.6215 2.98914
rclavicle 2.24627e-014 9.34288e-015
rhumerus -42.4225 17.7459 -94.6927
rradius 70.4669
rwrist 7.32254
rhand -25.9586 24.1562
rfingers 7.12502
rthumb 0.585738 -5.82278
lclavicle 2.24627e-014 9.34288e-015
lhumerus -26.4562 -9.42338 79.5989
lradius 74.5373
lwrist -149.871
lhand -30.7078 15.5718
lfingers 7.12502
lthumb -4.00093 45.514
rfemur -12.2576 -5.6252 18.9695
rtibia 54.5738
rfoot -23.9708 2.99719
rtoes -8.87852
lfemur -10.1301 2.96033 -15.093
ltibia 54.8848
lfoot -12.2719 -15.036
ltoes -21.0321
11
root 1.43449 17.0358 2.7732 542.299 -185.696 -179.135
lowerback -0.355991 -3.02356 -1.88094
upperback 0.967886 -4.00552 -0.682292
thorax 1.27085 -2.01609 0.290785
lowerneck -6.00948 -2.76048 -1.92264
upperneck -8.00371 -3.22916 7.78893
head -1.33004 -1.65375 2.79924
rclavicle -2.83765e-014 -6.36111e-015
rhumerus -43.8018 19.1045 -95.0298
rradius 73.975
rwrist 7.20299
rhand -25.4713 24.0685
rfingers 7.12502
rthumb 1.05633 -5.90859
lclavicle -2.83765e-014 -6.36111e-015
lhumerus -27.5951 -10.5117 79.3116
lradius 79.206
lwrist -149.977
lhand -31.2235 15.0311
lfingers 7.12502
lthumb -4.499 44.9634
rfemur -9.45205 -5.05502 18.7528
rtibia 50.8015
rfoot -20.5427 3.0779
rtoes -10.4524
lfemur -7.71605 2.60917 -15.2142
ltibia 51.1933
lfoot -7.59357 -14.3183
ltoes -26.3955
12
root 1.41257 17.3742 3.12901 542.611 -185.726 -178.675
lowerback -2.47515 -3.16646 -2.6248
upperback 0.577413 -4.12133 -0.80103
thorax 2.10415 -2.0836 0.464374
lowerneck -5.2403 -2.73033 -1.78083
upperneck -6.72965 -3.28356 7.36345
head -1.05843 -1.67041 2.62006
rclavicle 1.1455e-014 8.94531e-015
rhumerus -45.3285 20.3299 -95.3604
rradius 77.8234
rwrist 7.17283
rhand -24.6596 23.5589
rfingers 7.12502
rthumb 1.84032 -6.41296
lclavicle 1.1455e-014 8.94531e-015
lhumerus -28.5204 -11.3624 78.9036
lradius 83.5945
lwrist -149.776
lhand -32.0158 14.1547
lfingers 7.12502
lthumb -5.264 44.0693
rfemur -7.24432 -4.24175 18.4433
rtibia 47.2701
rfoot -16.6165 2.94331
rtoes -12.0454
lfemur -5.76734 2.05639 -15.6423
ltibia 47.5639
lfoot -2.21242 -13.4982
ltoes -29.4642
13
root 1.39139 17.6971 3.46604 542.98 -185.759 -178.281
lowerback -4.5589 -3.3458 -3.28161
upperback 0.186481 -4.25505 -0.89539
thorax 2.91504 -2.16015 0.607929
lowerneck -4.40911 -2.66614 -1.69074
upperneck -5.54985 -3.27793 6.93658
head -0.833762 -1.65945 2.45705
rclavicle -6.60711e-014 -1.27222e-014
rhumerus -46.9266 21.4101 -95.6911
rradius 81.5702
rwrist 7.43269
rhand -23.8415 23.1703
rfingers 7.12502
rthumb 2.63045 -6.79321
lclavicle -6.60711e-014 -1.27222e-014
lhumerus -29.4253 -12.0286 78.4452
lradius 87.7416
lwrist -149.388
lhand -32.9564 13.1364
lfingers 7.12502
lthumb -6.17213 43.0265
rfemur -5.43164 -3.11814 18.3256
rtibia 44.0702
rfoot -12.1654 2.54101
rtoes -14.1674
lfemur -4.23603 1.45874 -16.0364
ltibia 44.3588
lfoot 3.58484 -12.7816
ltoes -30.6359
